HIERARCHY
ROOT Hips
{
  OFFSET 5.84602e-005 68.8428 3.50346
  CHANNELS 6 Xposition Yposition Zposition Zrotation Xrotation Yrotation
  JOINT Spine
  {
    OFFSET 0 8.597 -4.6522
    CHANNELS 3 Zrotation Xrotation Yrotation
    JOINT Spine1
    {
      OFFSET 0 7.8454 0.4098
      CHANNELS 3 Zrotation Xrotation Yrotation
      JOINT Spine2
      {
        OFFSET 0 9.7078 -2.1609
        CHANNELS 3 Zrotation Xrotation Yrotation
        JOINT Neck
        {
          OFFSET 0 21.8761 -0.4549
          CHANNELS 3 Zrotation Xrotation Yrotation
          JOINT Head
          {
            OFFSET 0 12.3537 3.3602
            CHANNELS 3 Zrotation Xrotation Yrotation
            End Site
            {
              OFFSET 0.0001 18.9506 0.5657
            }
          }
        }
        JOINT LeftShoulder
        {
          OFFSET 2.2086 21.1115 7.2329
          CHANNELS 3 Zrotation Xrotation Yrotation
          JOINT LeftArm
          {
            OFFSET 13.1193 3.0282 -4.8998
            CHANNELS 3 Zrotation Xrotation Yrotation
            JOINT LeftForeArm
            {
              OFFSET 27.4081 -0.0973053 -0.2375
              CHANNELS 3 Zrotation Xrotation Yrotation
              JOINT LeftHand
              {
                OFFSET 22.8641 0.0662994 -0.1369
                CHANNELS 3 Zrotation Xrotation Yrotation
                JOINT LeftHandIndex1
                {
                  OFFSET 8.8614 0.775009 2.4612
                  CHANNELS 3 Zrotation Xrotation Yrotation
                  JOINT LeftHandIndex2
                  {
                    OFFSET 3.3146 -0.808304 0.5841
                    CHANNELS 3 Zrotation Xrotation Yrotation
                    JOINT LeftHandIndex3
                    {
                      OFFSET 2.2628 -0.552002 0.3989
                      CHANNELS 3 Zrotation Xrotation Yrotation
                      End Site
                      {
                        OFFSET 1.6102 -0.4807 0.2612
                      }
                    }
                  }
                }
                JOINT LeftHandMiddle1
                {
                  OFFSET 8.9937 0.895004 0.2143
                  CHANNELS 3 Zrotation Xrotation Yrotation
                  JOINT LeftHandMiddle2
                  {
                    OFFSET 4.0984 0.0113983 -0.0242
                    CHANNELS 3 Zrotation Xrotation Yrotation
                    JOINT LeftHandMiddle3
                    {
                      OFFSET 2.2716 0.00689697 -0.0138001
                      CHANNELS 3 Zrotation Xrotation Yrotation
                      End Site
                      {
                        OFFSET 2.0404 -0.1441 0.0027
                      }
                    }
                  }
                }
                JOINT LeftHandRing1
                {
                  OFFSET 8.5234 0.597198 -2.0164
                  CHANNELS 3 Zrotation Xrotation Yrotation
                  JOINT LeftHandRing2
                  {
                    OFFSET 3.7188 -0.188293 -0.2328
                    CHANNELS 3 Zrotation Xrotation Yrotation
                    JOINT LeftHandRing3
                    {
                      OFFSET 2.1191 -0.106598 -0.1332
                      CHANNELS 3 Zrotation Xrotation Yrotation
                      End Site
                      {
                        OFFSET 1.8737 -0.2304 -0.0886
                      }
                    }
                  }
                }
                JOINT LeftHandPinky1
                {
                  OFFSET 7.9094 -0.601089 -3.4825
                  CHANNELS 3 Zrotation Xrotation Yrotation
                  JOINT LeftHandPinky2
                  {
                    OFFSET 2.2874 -0.477005 -0.6314
                    CHANNELS 3 Zrotation Xrotation Yrotation
                    JOINT LeftHandPinky3
                    {
                      OFFSET 1.6774 -0.349396 -0.4633
                      CHANNELS 3 Zrotation Xrotation Yrotation
                      End Site
                      {
                        OFFSET 1.4888 -0.4091 -0.3416
                      }
                    }
                  }
                }
                JOINT LeftHandThumb1
                {
                  OFFSET 1.833 -1.3875 1.3896
                  CHANNELS 3 Zrotation Xrotation Yrotation
                  JOINT LeftHandThumb2
                  {
                    OFFSET 3.4129 -1.121 2.5732
                    CHANNELS 3 Zrotation Xrotation Yrotation
                    JOINT LeftHandThumb3
                    {
                      OFFSET 2.2474 -0.804199 1.6192
                      CHANNELS 3 Zrotation Xrotation Yrotation
                      End Site
                      {
                        OFFSET 1.6527 -0.5689 1.1317
                      }
                    }
                  }
                }
              }
            }
          }
        }
        JOINT RightShoulder
        {
          OFFSET -2.2086 21.1115 7.2329
          CHANNELS 3 Zrotation Xrotation Yrotation
          JOINT RightArm
          {
            OFFSET -13.1216 3.0287 -4.9007
            CHANNELS 3 Zrotation Xrotation Yrotation
            JOINT RightForeArm
            {
              OFFSET -27.4081 -0.0973053 -0.2375
              CHANNELS 3 Zrotation Xrotation Yrotation
              JOINT RightHand
              {
                OFFSET -22.8641 0.0664063 -0.1369
                CHANNELS 3 Zrotation Xrotation Yrotation
                JOINT RightHandIndex1
                {
                  OFFSET -8.8614 0.774994 2.4612
                  CHANNELS 3 Zrotation Xrotation Yrotation
                  JOINT RightHandIndex2
                  {
                    OFFSET -3.3146 -0.808304 0.5841
                    CHANNELS 3 Zrotation Xrotation Yrotation
                    JOINT RightHandIndex3
                    {
                      OFFSET -2.2628 -0.552002 0.3989
                      CHANNELS 3 Zrotation Xrotation Yrotation
                      End Site
                      {
                        OFFSET -1.6102 -0.4807 0.2612
                      }
                    }
                  }
                }
                JOINT RightHandMiddle1
                {
                  OFFSET -8.9937 0.894989 0.2143
                  CHANNELS 3 Zrotation Xrotation Yrotation
                  JOINT RightHandMiddle2
                  {
                    OFFSET -4.0984 0.0113983 -0.0242
                    CHANNELS 3 Zrotation Xrotation Yrotation
                    JOINT RightHandMiddle3
                    {
                      OFFSET -2.2716 0.00691223 -0.0138001
                      CHANNELS 3 Zrotation Xrotation Yrotation
                      End Site
                      {
                        OFFSET -2.0404 -0.1441 0.0027
                      }
                    }
                  }
                }
                JOINT RightHandRing1
                {
                  OFFSET -8.5234 0.597198 -2.0164
                  CHANNELS 3 Zrotation Xrotation Yrotation
                  JOINT RightHandRing2
                  {
                    OFFSET -3.7188 -0.188309 -0.2328
                    CHANNELS 3 Zrotation Xrotation Yrotation
                    JOINT RightHandRing3
                    {
                      OFFSET -2.1191 -0.106598 -0.1332
                      CHANNELS 3 Zrotation Xrotation Yrotation
                      End Site
                      {
                        OFFSET -1.8737 -0.2304 -0.0886
                      }
                    }
                  }
                }
                JOINT RightHandPinky1
                {
                  OFFSET -7.9094 -0.601105 -3.4825
                  CHANNELS 3 Zrotation Xrotation Yrotation
                  JOINT RightHandPinky2
                  {
                    OFFSET -2.2874 -0.477005 -0.6314
                    CHANNELS 3 Zrotation Xrotation Yrotation
                    JOINT RightHandPinky3
                    {
                      OFFSET -1.6774 -0.349396 -0.4633
                      CHANNELS 3 Zrotation Xrotation Yrotation
                      End Site
                      {
                        OFFSET -1.4888 -0.4091 -0.3416
                      }
                    }
                  }
                }
                JOINT RightHandThumb1
                {
                  OFFSET -1.833 -1.38751 1.3896
                  CHANNELS 3 Zrotation Xrotation Yrotation
                  JOINT RightHandThumb2
                  {
                    OFFSET -3.41299 -1.12099 2.5732
                    CHANNELS 3 Zrotation Xrotation Yrotation
                    JOINT RightHandThumb3
                    {
                      OFFSET -2.24741 -0.804108 1.6192
                      CHANNELS 3 Zrotation Xrotation Yrotation
                      End Site
                      {
                        OFFSET -1.6527 -0.5689 1.1317
                      }
                    }
                  }
                }
              }
            }
          }
        }
      }
    }
  }
  JOINT RightUpLeg
  {
    OFFSET -9.1966 3.8861 -0.7581
    CHANNELS 3 Zrotation Xrotation Yrotation
    JOINT RightLeg
    {
      OFFSET -0.7359 -41.0265 0
      CHANNELS 3 Zrotation Xrotation Yrotation
      JOINT RightFoot
      {
        OFFSET 0 -40.2855 0
        CHANNELS 3 Zrotation Xrotation Yrotation
        JOINT RightToeBase
        {
          OFFSET 0 -5.6122 11.7359
          CHANNELS 3 Zrotation Xrotation Yrotation
          End Site
          {
            OFFSET 0 0 7.8731
          }
        }
      }
    }
  }
  JOINT LeftUpLeg
  {
    OFFSET 9.1965 3.8864 -0.7581
    CHANNELS 3 Zrotation Xrotation Yrotation
    JOINT LeftLeg
    {
      OFFSET 0.7359 -41.0268 0
      CHANNELS 3 Zrotation Xrotation Yrotation
      JOINT LeftFoot
      {
        OFFSET 0 -40.2855 0
        CHANNELS 3 Zrotation Xrotation Yrotation
        JOINT LeftToeBase
        {
          OFFSET 0 -5.6122 11.7359
          CHANNELS 3 Zrotation Xrotation Yrotation
          End Site
          {
            OFFSET 0 0 7.8731
          }
        }
      }
    }
  }
}
MOTION
Frames:	6
Frame Time:	0.0333333
5.84602e-005 68.8428 3.50346 0 0 -0 0 0 -0 0 0 -0 0 0 -0 0 0 -0 0 0 -0 0 0 -0 0 0 -0 0 0 -0 0 0 -0 0 0 -0 0 0 -0 0 0 -0 0 0 -0 -0.0146107 -8.87603e-005 -2.63497e-007 2.99804e-018 -2.42657e-020 -1.42182e-022 0 0 -0 -0.0187562 -0.001176 5.858e-005 5.06224e-018 3.88251e-019 1.21329e-020 0 0 -0 -0.012269 -0.00324817 0.000675346 -1.74678e-018 3.88251e-019 -0 0 0 -0 0 0 -0 0 0 -0 0 0 -0 0 0 -0 0 0 -0 0 0 -0 0 0 -0 0 0 -0 0 0 -0 0 0 -0 0.0149955 -9.10982e-005 2.64101e-007 -9.69331e-018 1.21329e-020 -4.7394e-023 0 0 -0 0.0189956 -0.00119102 -5.96516e-005 -5.41541e-019 0 2.42657e-020 0 0 -0 0.0122698 -0.00324857 -0.000673756 -2.00796e-019 0 -1.94126e-019 0 0 -0 0 0 -0 0 0 -0 3.39842 1.33031 -0.0637918 -5.65207e-008 0.834868 -0.000436188 -3.39935 -2.16518 -0.0642563 -8.89002e-024 -1.18485e-023 -1.48106e-024 -3.39844 1.35642 0.0640283 -3.18788e-007 0.782166 -0.000588827 3.39931 -2.13858 0.0634662 1.1399e-023 0 -0 
39.7386 37.0694 22.5122 -179.996 51.0033 2.93212e-011 -0.169935 -1.41777 0.139929 -0.33656 -2.83595 0.275777 -0.33656 -2.83595 0.275777 -1.33747e-005 15.9931 6.16585e-006 8.62733e-008 10.996 -1.82157e-008 6.16073 1.44716 17.8843 -20.0249 56.9917 32.3535 32.0965 48.6369 -73.317 0.559472 -1.45497 8.28398 3.18055e-015 1.59028e-015 9.54166e-015 -3.53113e-031 6.36111e-015 3.18055e-015 1.52508e-006 6.36899e-007 -4.09773e-007 3.18055e-015 1.59028e-015 9.54166e-015 -0.0146132 -9.09743e-005 -3.38171e-006 1.52507e-006 6.36951e-007 -4.09693e-007 3.18055e-015 1.59028e-015 9.54166e-015 -0.0187433 -0.0011745 6.55739e-005 1.52506e-006 6.36964e-007 -4.09684e-007 3.18055e-015 1.59028e-015 9.54166e-015 -0.0122958 -0.00325153 0.000685842 2.23941e-006 8.01947e-007 1.58482e-006 3.18055e-015 1.59028e-015 9.54166e-015 -3.53113e-031 6.36111e-015 3.18055e-015 1.52508e-006 6.36899e-007 -4.09773e-007 -6.18127 1.45137 -17.9018 20.0248 56.9874 -32.3561 -32.1159 48.6231 73.3073 -0.573333 -1.45399 -8.27714 -7.68574e-007 3.03164e-007 2.06519e-007 -7.68574e-007 3.03164e-007 2.06519e-007 -7.68574e-007 3.03164e-007 2.06519e-007 -7.68574e-007 3.03164e-007 2.06519e-007 0.0149706 -9.15567e-005 2.66436e-006 -7.68566e-007 3.03191e-007 2.0648e-007 -7.68574e-007 3.03164e-007 2.06519e-007 0.0189739 -0.0011893 -5.78023e-005 -7.68562e-007 3.03198e-007 2.06477e-007 -7.68574e-007 3.03164e-007 2.06519e-007 0.0122972 -0.00325443 -0.000686414 -1.3568e-006 4.72402e-007 -1.5341e-006 -7.68574e-007 3.03164e-007 2.06519e-007 -7.68574e-007 3.03164e-007 2.06519e-007 -7.68574e-007 3.03164e-007 2.06519e-007 -40.0284 34.0519 -26.4296 -70.4272 38.803 70.752 19.6139 12.763 10.1977 7.51833e-007 -3.2045e-008 4.62537e-007 40.5484 33.733 26.3469 70.9791 39.0974 -71.1065 -19.2646 12.5865 -10.8936 4.77083e-015 -1.59028e-015 -3.18055e-015 
39.7383 37.0695 22.5118 -179.996 51.0054 8.95158e-011 -0.170279 -1.4841 0.139326 -0.337115 -2.96858 0.274376 -0.337115 -2.96859 0.274376 -1.21034e-005 15.993 6.04877e-006 -4.61653e-008 12.2665 1.47343e-007 6.2289 1.54649 18.1715 -20.007 56.997 32.3315 32.0965 48.6369 -73.317 0.535278 -1.20164 8.1203 7.61528e-007 3.20368e-007 -2.05622e-007 -7.2062e-007 -1.7926e-007 -2.0296e-006 -1.01866e-007 4.35051e-007 -1.01651e-006 7.61528e-007 3.20368e-007 -2.05622e-007 -0.0146061 -8.69e-005 8.12657e-006 -9.98746e-008 4.35192e-007 -1.01646e-006 7.61528e-007 3.20368e-007 -2.05622e-007 -0.0187724 -0.00117372 6.11379e-005 -4.41391e-031 1.59028e-015 1.59028e-014 7.61528e-007 3.20368e-007 -2.05622e-007 -0.0122865 -0.00325334 0.000675576 -0 -3.18055e-015 -0 7.61528e-007 3.20368e-007 -2.05622e-007 -7.2062e-007 -1.7926e-007 -2.0296e-006 -1.01866e-007 4.35051e-007 -1.01651e-006 -6.24105 1.54282 -18.1732 20.0248 56.9874 -32.3561 -32.116 48.6231 73.3074 -0.544148 -1.19457 -8.12288 -2.3423e-007 -4.26328e-007 -1.2953e-006 -5.94824e-007 1.83525e-007 -1.77512e-006 -2.3423e-007 -4.26329e-007 -1.2953e-006 -2.3423e-007 -4.26328e-007 -1.2953e-006 0.015016 -9.15937e-005 -6.37312e-006 -3.18055e-015 -1.59028e-015 -9.54166e-015 -2.3423e-007 -4.26328e-007 -1.2953e-006 0.0190384 -0.00119505 -6.33273e-005 -1.27222e-014 1.90833e-014 1.59028e-014 -2.3423e-007 -4.26328e-007 -1.2953e-006 0.0122689 -0.00324899 -0.000686094 -3.53113e-031 6.36111e-015 3.18055e-015 -2.3423e-007 -4.26328e-007 -1.2953e-006 -5.94824e-007 1.83525e-007 -1.77512e-006 -2.3423e-007 -4.26329e-007 -1.2953e-006 -40.7253 33.8071 -26.7809 -70.425 38.8026 70.7381 18.7848 12.9571 11.0094 -1.81663e-006 4.6885e-007 -8.94125e-009 41.0426 33.5578 26.6383 70.9785 39.0973 -71.0977 -18.673 12.7296 -11.4754 1.81617e-006 4.69573e-007 9.24337e-009 
39.738 37.0697 22.5116 -179.996 51.0054 8.95158e-011 -0.170621 -1.55056 0.138719 -0.337671 -3.10146 0.272967 -0.337671 -3.10146 0.272967 -2.93638e-006 15.9932 2.17433e-006 7.88027e-008 13.5395 8.10315e-008 6.29657 1.64612 18.4585 -19.989 57.0022 32.3095 32.0965 48.6369 -73.317 0.511807 -0.94823 7.9567 -9.73878e-008 4.50195e-007 -9.77148e-007 8.57888e-007 -1.27901e-007 7.70771e-007 -9.73879e-008 4.50195e-007 -9.77148e-007 -9.73878e-008 4.50195e-007 -9.77148e-007 -0.014597 -8.87791e-005 6.3404e-006 6.36111e-015 -1.59028e-015 -3.18055e-015 -9.73878e-008 4.50195e-007 -9.77148e-007 -0.018772 -0.00117942 6.02208e-005 3.53113e-031 6.36111e-015 -3.18055e-015 -9.73878e-008 4.50195e-007 -9.77148e-007 -0.0122398 -0.00324159 0.000675483 1.59028e-014 1.11319e-014 -3.18055e-015 -9.73878e-008 4.50195e-007 -9.77148e-007 8.57888e-007 -1.27901e-007 7.70771e-007 -9.73879e-008 4.50195e-007 -9.77148e-007 -6.30041 1.6345 -18.4446 20.0248 56.9874 -32.3561 -32.116 48.6231 73.3074 -0.515655 -0.935055 -7.96874 -1.86731e-006 4.3795e-007 -2.12614e-006 -3.74595e-006 -8.5567e-007 -2.32074e-006 -1.86731e-006 4.3795e-007 -2.12614e-006 -1.86731e-006 4.3795e-007 -2.12614e-006 0.0150157 -9.13926e-005 -1.15744e-006 -1.86816e-006 4.37676e-007 -2.1262e-006 -1.86731e-006 4.3795e-007 -2.12614e-006 0.0190165 -0.00119238 -5.95892e-005 -1.86841e-006 4.37663e-007 -2.12619e-006 -1.86731e-006 4.3795e-007 -2.12614e-006 0.0122485 -0.00324297 -0.00067368 -1.86807e-006 4.37895e-007 -2.1261e-006 -1.86731e-006 4.3795e-007 -2.12614e-006 -3.74595e-006 -8.5567e-007 -2.32074e-006 -1.86731e-006 4.3795e-007 -2.12614e-006 -41.4228 33.5656 -27.1351 -70.4229 38.8022 70.7243 17.9513 13.1398 11.8254 1.75974e-007 -8.20521e-007 1.42286e-007 41.5374 33.3846 26.9311 70.9779 39.0972 -71.0889 -18.0792 12.8668 -12.0592 -1.50664e-006 6.41477e-008 1.775e-006 
39.7378 37.0699 22.5114 -179.996 51.0054 8.95158e-011 -0.170966 -1.61713 0.138111 -0.338233 -3.23456 0.271555 -0.338232 -3.23458 0.271554 -1.565e-006 15.9931 1.40607e-006 1.03847e-008 14.8146 -1.34862e-007 6.36376 1.74613 18.7455 -19.971 57.0074 32.2875 32.0965 48.6369 -73.317 0.48906 -0.694732 7.79322 7.59463e-007 3.24229e-007 -2.07135e-007 6.36111e-015 -2.38542e-014 3.18055e-015 9.54166e-015 -2.54444e-014 3.18055e-015 7.59463e-007 3.24229e-007 -2.07135e-007 -0.0146253 -8.7704e-005 2.39357e-007 -1.05934e-030 6.36111e-015 9.54166e-015 7.59463e-007 3.24229e-007 -2.07135e-007 -0.0187679 -0.00117664 6.21267e-005 3.18055e-015 -3.18055e-015 3.18055e-015 7.59463e-007 3.24229e-007 -2.07135e-007 -0.0122767 -0.00324877 0.00066747 -3.18055e-015 -2.06736e-014 -6.36111e-015 7.59463e-007 3.24229e-007 -2.07135e-007 6.36111e-015 -2.38542e-014 3.18055e-015 9.54166e-015 -2.54444e-014 3.18055e-015 -6.35933 1.7265 -18.716 20.0248 56.9874 -32.3561 -32.116 48.6231 73.3074 -0.487879 -0.675441 -7.81475 7.65635e-007 -3.08902e-007 -2.08796e-007 8.88135e-007 1.14832e-006 -8.35183e-007 7.65635e-007 -3.08902e-007 -2.08796e-007 7.65635e-007 -3.08902e-007 -2.08796e-007 0.0150256 -8.95227e-005 -5.04479e-006 7.65627e-007 -3.08929e-007 -2.08756e-007 7.65635e-007 -3.08902e-007 -2.08796e-007 0.0189914 -0.00119302 -5.8919e-005 7.65623e-007 -3.08935e-007 -2.08752e-007 7.65635e-007 -3.08902e-007 -2.08796e-007 0.0122882 -0.00325 -0.000683908 7.65624e-007 -3.08918e-007 -2.08784e-007 7.65635e-007 -3.08902e-007 -2.08796e-007 8.88135e-007 1.14832e-006 -8.35183e-007 7.65635e-007 -3.08902e-007 -2.08796e-007 -42.1208 33.3274 -27.4922 -70.4207 38.8019 70.7107 17.1137 13.3108 12.6454 3.97569e-015 -1.59028e-015 -0 42.0324 33.2134 27.2252 70.9771 39.097 -71.0801 -17.4834 12.9982 -12.6452 1.75538e-007 8.20443e-007 1.43182e-007 
39.7375 37.0701 22.5112 -179.996 51.0054 8.95158e-011 -0.171311 -1.68373 0.1375 -0.338796 -3.36788 0.270136 -0.338796 -3.36787 0.270136 -2.26963e-005 15.9931 1.28121e-005 2.27187e-008 16.0917 1.14319e-007 6.43045 1.84648 19.0324 -19.953 57.0127 32.2654 32.0965 48.6369 -73.317 0.467034 -0.441141 7.62983 3.18055e-015 0 3.18055e-015 -7.58415e-007 -3.26172e-007 2.07898e-007 -0 -3.18055e-015 -0 3.18055e-015 0 3.18055e-015 -0.0146389 -9.08531e-005 -3.02329e-006 -7.44268e-007 -2.2321e-007 -2.13607e-006 3.18055e-015 0 3.18055e-015 -0.0187669 -0.00117593 6.58429e-005 3.18055e-015 3.18055e-015 6.36111e-015 3.18055e-015 0 3.18055e-015 -0.0122389 -0.00324084 0.000671631 -7.44027e-007 -2.23645e-007 -2.13596e-006 3.18055e-015 0 3.18055e-015 -7.58415e-007 -3.26172e-007 2.07898e-007 -0 -3.18055e-015 -0 -6.41783 1.81879 -18.9873 20.0248 56.9874 -32.3561 -32.116 48.6231 73.3074 -0.460782 -0.415725 -7.66086 1.45583e-006 1.62883e-008 4.93856e-006 -3.31652e-006 -1.65376e-006 2.05151e-006 6.91199e-007 3.27118e-007 5.14812e-006 1.45583e-006 1.62883e-008 4.93856e-006 0.0149462 -9.04969e-005 -6.51858e-006 7.34837e-008 5.55544e-007 3.26803e-006 1.45583e-006 1.62883e-008 4.93856e-006 0.0189993 -0.00119279 -6.04336e-005 7.34731e-008 5.55671e-007 3.26801e-006 1.45583e-006 1.62883e-008 4.93856e-006 0.0122592 -0.00324646 -0.000681802 -5.45559e-007 7.83702e-007 1.38811e-006 1.45583e-006 1.62883e-008 4.93856e-006 -3.31652e-006 -1.65376e-006 2.05151e-006 6.91199e-007 3.27118e-007 5.14812e-006 -42.8193 33.0927 -27.8521 -70.4186 38.8015 70.6972 16.2723 13.4701 13.4692 -1.76354e-007 8.20718e-007 -1.4089e-007 42.5278 33.0442 27.5206 70.9767 39.097 -71.0718 -16.8857 13.1234 -13.2329 1.07803e-006 4.40076e-007 -4.53847e-007 
